<svg
  version="1.1"
  id="Layer_1"
  xmlns="http://www.w3.org/2000/svg"
  xmlns:xlink="http://www.w3.org/1999/xlink"
  x="100px"
  y="0px"
  width="10%"
  viewBox="0 0 1200 1200"
  enable-background="new 0 0 1200 1200"
>
  <path
    fill="#000000"
    opacity="1.000000"
    stroke="none"
    d="
M668.000000,1201.000000 
	C445.333344,1201.000000 223.166672,1201.000000 1.000000,1201.000000 
	C1.000000,801.000000 1.000000,401.000000 1.000000,1.000000 
	C401.000000,1.000000 801.000000,1.000000 1201.000000,1.000000 
	C1201.000000,401.000000 1201.000000,801.000000 1201.000000,1201.000000 
	C1023.500000,1201.000000 846.000000,1201.000000 668.000000,1201.000000 
M478.001617,720.519836 
	C506.820435,682.200806 535.595398,643.848511 564.534119,605.620239 
	C567.082458,602.253906 567.289795,600.024536 564.678040,596.560120 
	C499.736664,510.418304 434.921509,424.181458 369.955658,338.058228 
	C368.736206,336.441620 365.974182,335.138947 363.923279,335.126617 
	C333.096558,334.941833 302.268372,334.994568 271.440552,335.013763 
	C270.233215,335.014526 269.026001,335.238098 267.383392,335.401001 
	C268.349121,336.697144 268.933289,337.487671 269.524078,338.273193 
	C333.967468,423.953766 398.373566,509.662476 462.962738,595.232971 
	C466.319489,599.680115 466.227905,602.427307 462.923065,606.805908 
	C398.736267,691.846741 334.717804,777.014648 270.673248,862.162842 
	C269.637512,863.539795 268.706207,864.995422 267.661743,866.507629 
	C268.421783,866.776550 268.709229,866.967224 268.996796,866.967407 
	C300.990814,866.987915 332.985046,867.040710 364.978149,866.872131 
	C366.686340,866.863159 368.907837,865.377380 370.011871,863.915588 
	C405.931641,816.356628 441.743469,768.716187 478.001617,720.519836 
M634.993774,859.440552 
	C634.993774,861.877563 634.993774,864.314575 634.993774,866.791748 
	C735.227356,866.791748 834.929626,866.791748 934.623352,866.791748 
	C934.623352,844.892395 934.623352,823.209656 934.623352,801.658630 
	C834.560242,801.658630 734.875000,801.658630 634.993774,801.658630 
	C634.993774,820.821899 634.993774,839.639343 634.993774,859.440552 
z"
  />
  <path
    fill="#FEFEFE"
    opacity="1.000000"
    stroke="none"
    d="
M477.786499,720.803833 
	C441.743469,768.716187 405.931641,816.356628 370.011871,863.915588 
	C368.907837,865.377380 366.686340,866.863159 364.978149,866.872131 
	C332.985046,867.040710 300.990814,866.987915 268.996796,866.967407 
	C268.709229,866.967224 268.421783,866.776550 267.661743,866.507629 
	C268.706207,864.995422 269.637512,863.539795 270.673248,862.162842 
	C334.717804,777.014648 398.736267,691.846741 462.923065,606.805908 
	C466.227905,602.427307 466.319489,599.680115 462.962738,595.232971 
	C398.373566,509.662476 333.967468,423.953766 269.524078,338.273193 
	C268.933289,337.487671 268.349121,336.697144 267.383392,335.401001 
	C269.026001,335.238098 270.233215,335.014526 271.440552,335.013763 
	C302.268372,334.994568 333.096558,334.941833 363.923279,335.126617 
	C365.974182,335.138947 368.736206,336.441620 369.955658,338.058228 
	C434.921509,424.181458 499.736664,510.418304 564.678040,596.560120 
	C567.289795,600.024536 567.082458,602.253906 564.534119,605.620239 
	C535.595398,643.848511 506.820435,682.200806 477.786499,720.803833 
z"
  />
  <path
    fill="#FDFDFD"
    opacity="1.000000"
    stroke="none"
    d="
M634.993774,858.948669 
	C634.993774,839.639343 634.993774,820.821899 634.993774,801.658630 
	C734.875000,801.658630 834.560242,801.658630 934.623352,801.658630 
	C934.623352,823.209656 934.623352,844.892395 934.623352,866.791748 
	C834.929626,866.791748 735.227356,866.791748 634.993774,866.791748 
	C634.993774,864.314575 634.993774,861.877563 634.993774,858.948669 
z"
  />
</svg>
